<svg xmlns="http://www.w3.org/2000/svg" version="1.1" xmlns:xlink="http://www.w3.org/1999/xlink" xmlns:svgjs="http://svgjs.dev/svgjs" width="1500" height="401" viewBox="0 0 1500 401"><g transform="matrix(1,0,0,1,-0.9090909090909918,-0.054201376103861776)"><svg viewBox="0 0 396 106" data-background-color="#f9f6ed" preserveAspectRatio="xMidYMid meet" height="401" width="1500" xmlns="http://www.w3.org/2000/svg" xmlns:xlink="http://www.w3.org/1999/xlink"><g id="tight-bounds" transform="matrix(1,0,0,1,0.2400000000000091,0.014327545803013209)"><svg viewBox="0 0 395.52 105.97134490839397" height="105.97134490839397" width="395.52"><g><svg viewBox="0 0 585.5100322322987 156.87521635571855" height="105.97134490839397" width="395.52"><g transform="matrix(1,0,0,1,189.99003223229877,48.47671888150356)"><svg viewBox="0 0 395.52 59.92177859271144" height="59.92177859271144" width="395.52"><g id="textblocktransform"><svg viewBox="0 0 395.52 59.92177859271144" height="59.92177859271144" width="395.52" id="textblock"><g><svg viewBox="0 0 395.52 59.92177859271144" height="59.92177859271144" width="395.52"><g transform="matrix(1,0,0,1,0,0)"><svg width="395.52" viewBox="1.95 -31.74 213.02 32.28" height="59.92177859271144" data-palette-color="#21272d"><path d="M24.71-22.66L24.71-22.66Q24.71-26.37 21.19-28.17L21.19-28.17Q18.9-29.3 15.67-29.3L15.67-29.3 1.95-29.3 1.95-28.03 5.86-28.03 5.86-1.27 1.95-1.27 1.95 0 15.82 0Q22.12 0 25.05-4L25.05-4Q26.56-6.1 26.56-8.59L26.56-8.59Q26.56-12.5 23.1-14.65L23.1-14.65Q21.48-15.58 19.38-15.97L19.38-15.97Q22.9-17.29 24.22-20.41L24.22-20.41Q24.71-21.58 24.71-22.66ZM10.06-28.03L14.5-28.03Q19.53-28.03 20.21-23.58L20.21-23.58Q20.31-22.95 20.31-22.27L20.31-22.27Q20.31-19.09 17.82-17.48L17.82-17.48Q16.36-16.55 14.4-16.55L14.4-16.55 10.06-16.55 10.06-28.03ZM10.06-15.23L15.33-15.23Q19.78-15.23 21.29-11.47L21.29-11.47Q21.88-10.11 21.88-8.5L21.88-8.5Q21.88-4.74 19.43-2.64L19.43-2.64Q17.82-1.27 15.58-1.27L15.58-1.27 10.06-1.27 10.06-15.23ZM34.86-10.4L34.86-10.4Q34.86-17.97 39.01-19.63L39.01-19.63Q40.09-20.02 41.26-20.02L41.26-20.02Q46.68-20.02 47.56-13.18L47.56-13.18Q47.7-12.01 47.7-10.6L47.7-10.6Q47.7-2.39 43.21-0.98L43.21-0.98Q42.33-0.73 41.4-0.73L41.4-0.73Q36.47-0.73 35.2-6.59L35.2-6.59Q34.86-8.3 34.86-10.4ZM41.4-21.24L41.4-21.24Q36.72-21.24 33.59-18.02L33.59-18.02Q30.71-15.04 30.71-10.6L30.71-10.6Q30.71-4.44 35.2-1.37L35.2-1.37Q37.94 0.49 41.26 0.49L41.26 0.49Q45.94 0.49 49.02-2.83L49.02-2.83Q51.85-5.86 51.85-10.4L51.85-10.4Q51.85-16.55 47.31-19.53L47.31-19.53Q44.63-21.24 41.4-21.24ZM59.91-10.4L59.91-10.4Q59.91-17.97 64.06-19.63L64.06-19.63Q65.13-20.02 66.3-20.02L66.3-20.02Q71.72-20.02 72.6-13.18L72.6-13.18Q72.75-12.01 72.75-10.6L72.75-10.6Q72.75-2.39 68.26-0.98L68.26-0.98Q67.38-0.73 66.45-0.73L66.45-0.73Q61.52-0.73 60.25-6.59L60.25-6.59Q59.91-8.3 59.91-10.4ZM66.45-21.24L66.45-21.24Q61.76-21.24 58.64-18.02L58.64-18.02Q55.76-15.04 55.76-10.6L55.76-10.6Q55.76-4.44 60.25-1.37L60.25-1.37Q62.98 0.49 66.3 0.49L66.3 0.49Q70.99 0.49 74.07-2.83L74.07-2.83Q76.9-5.86 76.9-10.4L76.9-10.4Q76.9-16.55 72.36-19.53L72.36-19.53Q69.67-21.24 66.45-21.24ZM89.89-1.22L89.89-1.22 87.69-1.22 87.69-8.45 90.37-10.94 97.26 0 103.75 0Q103.75-1.07 103.02-1.17L103.02-1.17Q102.82-1.22 102.53-1.22L102.53-1.22 100.77-1.22 92.91-13.33 97.5-17.63Q99.21-19.24 100.09-19.43L100.09-19.43Q100.48-19.53 100.97-19.53L100.97-19.53Q102.04-19.53 102.14-20.26L102.14-20.26Q102.19-20.51 102.19-20.75L102.19-20.75 93.89-20.75 93.89-19.53 97.55-19.53 87.69-10.4 87.69-31.74 80.36-31.74 80.36-30.52 84.03-30.52 84.03-4.15Q84.03-1.9 82.76-1.46L82.76-1.46Q82.02-1.22 80.36-1.22L80.36-1.22 80.36 0 91.11 0Q91.11-1.07 90.37-1.17L90.37-1.17Q90.18-1.22 89.89-1.22ZM126.99-7.67L126.99-7.67Q126.99-12.01 122.3-14.65L122.3-14.65Q121.38-15.14 116.59-17.24L116.59-17.24Q112.25-19.09 111.12-21.04L111.12-21.04Q110.54-22.12 110.54-23.34L110.54-23.34Q110.54-26.61 113.71-27.88L113.71-27.88Q115.08-28.42 116.74-28.42L116.74-28.42Q120.84-28.42 122.99-25.63L122.99-25.63Q124.4-23.73 124.36-21L124.36-21 125.82-21 125.82-29.54Q124.65-29.54 124.45-28.81L124.45-28.81Q124.36-28.47 124.36-27.88L124.36-27.88Q120.89-29.79 116.54-29.79L116.54-29.79Q111.27-29.79 108.34-26.86L108.34-26.86Q106.39-24.8 106.39-22.07L106.39-22.07Q106.39-17.97 110.98-15.38L110.98-15.38Q111.81-14.94 116.54-12.89L116.54-12.89Q120.94-10.94 122.11-8.94L122.11-8.94Q122.74-7.81 122.74-6.49L122.74-6.49Q122.74-3.08 119.42-1.56L119.42-1.56Q117.86-0.88 115.96-0.88L115.96-0.88Q108.49-0.98 107.66-10.01L107.66-10.01 106.19-10.01 106.19 0.1Q107.36 0.1 107.56-0.59L107.56-0.59Q107.66-0.98 107.66-2L107.66-2Q111.42 0.49 116.2 0.49L116.2 0.49Q121.82 0.49 124.89-2.54L124.89-2.54Q126.99-4.69 126.99-7.67ZM130.41-20.75L130.41-19.53 133.83-19.53 133.83-5.76Q134.17 0.34 139.44 0.54L139.44 0.54Q143.93 0.54 145.06-4.98L145.06-4.98Q145.06-5.03 145.06-5.08L145.06-5.08 143.74-5.32Q142.52-1.27 140.17-0.93L140.17-0.93Q137.54-1.03 137.49-4.69L137.49-4.69 137.49-19.53 145.06-19.53 145.06-20.75 137.49-20.75 137.49-26.42 133.83-25.39 133.83-20.75 130.41-20.75ZM164.39 0.49L164.39 0.49Q168.15 0.49 168.54-4.05L168.54-4.05Q168.59-4.35 168.59-4.59L168.59-4.59 167.32-4.64Q166.98-1.07 165.41-1.03L165.41-1.03Q164.15-1.12 164.1-3.56L164.1-3.56 164.1-13.87Q164.1-20.85 157.11-21.24L157.11-21.24Q156.67-21.24 156.24-21.24L156.24-21.24Q150.77-21.24 148.91-18.7L148.91-18.7Q148.32-17.87 148.32-17.04L148.32-17.04Q148.32-15.53 149.74-15.28L149.74-15.28Q149.99-15.23 150.23-15.23L150.23-15.23Q151.35-15.23 151.89-16.65L151.89-16.65Q152.57-18.46 152.82-18.8L152.82-18.8Q153.74-20.02 155.7-20.02L155.7-20.02Q160.29-19.73 160.43-14.99L160.43-14.99 160.43-11.91Q148.96-11.91 147.3-7.13L147.3-7.13Q147.01-6.2 147.01-5.13L147.01-5.13Q147.01-1.42 150.28-0.05L150.28-0.05Q151.6 0.49 153.06 0.49L153.06 0.49Q156.63 0.49 159.07-1.95L159.07-1.95Q159.95-2.88 160.39-3.91L160.39-3.91Q160.97 0.44 164.39 0.49ZM154.67-1.46L154.67-1.46Q151.69-1.46 151.01-4.44L151.01-4.44Q150.86-5.13 150.86-5.96L150.86-5.96Q150.86-9.23 154.62-10.11L154.62-10.11Q156.63-10.55 160.43-10.6L160.43-10.6 160.43-6.69Q159.7-3.32 156.87-1.95L156.87-1.95Q155.75-1.46 154.67-1.46ZM170.78-10.16L170.78-10.16Q170.78-4.25 175.13-1.32L175.13-1.32Q177.81 0.49 181.23 0.49L181.23 0.49Q186.31 0.49 188.9-3.08L188.9-3.08Q189.48-3.91 189.83-4.74L189.83-4.74 188.56-5.18Q186.75-1.32 182.6-0.93L182.6-0.93Q182.21-0.88 181.82-0.88L181.82-0.88Q178.35-0.88 176.4-4.35L176.4-4.35Q174.93-6.98 174.93-10.6L174.93-10.6Q174.93-16.99 178.3-19.14L178.3-19.14Q179.72-20.02 181.43-20.02L181.43-20.02Q184.06-20.02 184.6-17.97L184.6-17.97Q184.7-17.58 184.85-16.75L184.85-16.75Q185.14-14.79 185.92-14.31L185.92-14.31Q186.41-14.06 186.99-14.01L186.99-14.01Q188.65-13.92 189.09-15.38L189.09-15.38Q189.19-15.72 189.19-16.02L189.19-16.02Q189.19-18.51 186.02-20.12L186.02-20.12Q183.77-21.24 181.13-21.24L181.13-21.24Q174.59-21.24 172-15.92L172-15.92Q170.78-13.38 170.78-10.16ZM201.1-1.22L201.1-1.22 198.91-1.22 198.91-8.45 201.59-10.94 208.48 0 214.97 0Q214.97-1.07 214.24-1.17L214.24-1.17Q214.04-1.22 213.75-1.22L213.75-1.22 211.99-1.22 204.13-13.33 208.72-17.63Q210.43-19.24 211.31-19.43L211.31-19.43Q211.7-19.53 212.19-19.53L212.19-19.53Q213.26-19.53 213.36-20.26L213.36-20.26Q213.41-20.51 213.41-20.75L213.41-20.75 205.11-20.75 205.11-19.53 208.77-19.53 198.91-10.4 198.91-31.74 191.58-31.74 191.58-30.52 195.24-30.52 195.24-4.15Q195.24-1.9 193.97-1.46L193.97-1.46Q193.24-1.22 191.58-1.22L191.58-1.22 191.58 0 202.32 0Q202.32-1.07 201.59-1.17L201.59-1.17Q201.4-1.22 201.1-1.22Z" opacity="1" transform="matrix(1,0,0,1,0,0)" fill="#21272d" class="wordmark-text-0" data-fill-palette-color="primary" id="text-0"></path></svg></g></svg></g></svg></g></svg></g><g><svg viewBox="0 0 175.84393842924584 156.87521635571855" height="156.87521635571855" width="175.84393842924584"><g><svg xmlns="http://www.w3.org/2000/svg" xmlns:xlink="http://www.w3.org/1999/xlink" version="1.1" x="0" y="0" viewBox="8.387 13.005 84.192 75.11" enable-background="new 0 0 100 100" xml:space="preserve" height="156.87521635571855" width="175.84393842924584" class="icon-icon-0" data-fill-palette-color="accent" id="icon-0"><g fill="#ea5141" data-fill-palette-color="accent"><path d="M49.569 22.967C39.594 17.276 28.892 13.842 18.524 13.005V71.356C28.891 72.17 39.574 75.51 49.569 81.055z" fill="#ea5141" data-fill-palette-color="accent"></path><path d="M49.229 84.073C50.043 84.351 50.9 84.363 51.714 84.085 63.371 79.042 75.579 76.772 87.512 77.295V19.524A67 67 0 0 0 84.272 19.469V73.063L83.42 73.119C72.748 73.816 61.688 77.296 51.399 83.167A2.83 2.83 0 0 1 49.569 83.167C39.279 77.296 28.22 73.816 17.548 73.119L16.694 73.063V19.469A66 66 0 0 0 13.455 19.524V77.295C25.387 76.771 37.569 79.03 49.229 84.073" fill="#ea5141" data-fill-palette-color="accent"></path><path d="M92.579 26.009C91.509 25.86 90.422 25.781 89.342 25.674V79.224L88.374 79.168C76.179 78.469 63.314 80.945 51.399 86.233L50.483 86.614 49.568 86.233C37.651 80.945 24.787 78.468 12.592 79.168L11.625 79.224V25.674C10.544 25.782 9.457 25.861 8.387 26.009V84.716A5 5 0 0 1 9.431 85.464C22.382 83.714 35.824 83.928 48.611 88.115A19 19 0 0 1 50.484 88.02C51.145 88.02 51.769 88.057 52.356 88.115 65.141 83.927 78.585 83.714 91.535 85.464 91.535 85.464 92.009 85.002 92.579 84.716z" fill="#ea5141" data-fill-palette-color="accent"></path><path d="M65.283 16.667V37.292L61.303 32.554 57.108 37.292V19.994A84 84 0 0 0 51.4 22.968V81.055C61.393 75.51 72.079 72.17 82.445 71.356V13.005C76.766 13.464 70.987 14.706 65.283 16.667" fill="#ea5141" data-fill-palette-color="accent"></path></g></svg></g></svg></g></svg></g><defs></defs></svg><rect width="395.52" height="105.97134490839397" fill="none" stroke="none" visibility="hidden"></rect></g></svg></g></svg>